<svg width="32" height="32" viewBox="0 0 32 32" fill="none" xmlns="http://www.w3.org/2000/svg">
<g clip-path="url(#clip0_525_4232)">
<path d="M16 7C15.3078 7 14.6311 6.79473 14.0555 6.41015C13.4799 6.02556 13.0313 5.47894 12.7664 4.83939C12.5015 4.19985 12.4322 3.49612 12.5673 2.81719C12.7023 2.13825 13.0356 1.51461 13.5251 1.02513C14.0146 0.535644 14.6383 0.202301 15.3172 0.0672531C15.9961 -0.0677952 16.6999 0.00151652 17.3394 0.266423C17.9789 0.53133 18.5256 0.979934 18.9101 1.55551C19.2947 2.13108 19.5 2.80777 19.5 3.5C19.499 4.42795 19.1299 5.31762 18.4738 5.97378C17.8176 6.62994 16.928 6.99901 16 7Z" fill="black" stroke="black" stroke-width="0.0625"/>
<path d="M27 7.05L26.9719 7.0575L26.9456 7.06563C26.8831 7.08313 26.8206 7.10188 26.7581 7.12125C25.595 7.4625 19.95 9.05375 15.9731 9.05375C12.2775 9.05375 7.14311 7.67875 5.50061 7.21188C5.33714 7.14867 5.17021 7.09483 5.00061 7.05063C3.81311 6.73813 3.00061 7.94438 3.00061 9.04688C3.00061 10.1388 3.98186 10.6588 4.97249 11.0319V11.0494L10.9237 12.9081C11.5319 13.1413 11.6944 13.3794 11.7737 13.5856C12.0319 14.2475 11.8256 15.5581 11.7525 16.0156L11.39 18.8281L9.37811 29.84C9.37186 29.87 9.36624 29.9006 9.36124 29.9319L9.34686 30.0113C9.20186 31.0206 9.94311 32 11.3469 32C12.5719 32 13.1125 31.1544 13.3469 30.0038C13.5812 28.8531 15.0969 20.1556 15.9719 20.1556C16.8469 20.1556 18.6494 30.0038 18.6494 30.0038C18.8837 31.1544 19.4244 32 20.6494 32C22.0569 32 22.7981 31.0163 22.6494 30.0038C22.6366 29.9186 22.6207 29.834 22.6019 29.75L20.5625 18.8294L20.2006 16.0169C19.9387 14.3788 20.1494 13.8375 20.2206 13.7106C20.2225 13.7076 20.2242 13.7045 20.2256 13.7013C20.2931 13.5763 20.6006 13.2963 21.3181 13.0269L26.8981 11.0763C26.9324 11.0671 26.9662 11.0563 26.9994 11.0438C27.9994 10.6688 28.9994 10.15 28.9994 9.04813C28.9994 7.94625 28.1875 6.73813 27 7.05Z" fill="black" stroke="black" stroke-width="0.0625"/>
</g>
<defs>
<clipPath id="clip0_525_4232">
<rect width="32" height="32" fill="white"/>
</clipPath>
</defs>
</svg>
