<svg width="32" height="32" viewBox="0 0 32 32" fill="none" xmlns="http://www.w3.org/2000/svg">
<g clip-path="url(#clip0_525_5249)">
<path d="M16 6C17.3807 6 18.5 4.88071 18.5 3.5C18.5 2.11929 17.3807 1 16 1C14.6193 1 13.5 2.11929 13.5 3.5C13.5 4.88071 14.6193 6 16 6Z" stroke="black" stroke-width="2" stroke-linejoin="round"/>
<path d="M12.7644 17.1525C12.9456 16.0238 13.0269 14.9325 12.7331 14.1781C12.4831 13.5294 11.9394 13.1663 11.2831 12.9188L5.5 11.0475C4.75 10.7975 4.04938 10.3788 4 9.55125C3.9375 8.48875 4.875 7.80125 5.8125 8.05125C5.8125 8.05125 11.3125 9.9975 16 9.9975C20.6875 9.9975 26.125 8.06 26.125 8.06C27.25 7.7475 28 8.6225 28 9.54688C28 10.435 27.3125 10.7475 26.5 11.0431L21 13.0375C20.5 13.225 19.6875 13.6 19.375 14.1738C19 14.8456 19.0625 16.0194 19.2438 17.1481L19.6125 19L21.9506 29.2438C22.1256 30.0656 21.5569 30.8338 20.7381 30.9775C19.9194 31.1213 19.25 30.5625 19.0075 29.7675L16.66 22.5219C16.5471 22.1744 16.4471 21.8229 16.36 21.4675L16 20L15.6688 21.3531C15.5638 21.7844 15.4429 22.211 15.3063 22.6331L13 29.7613C12.75 30.5644 12.0938 31.1206 11.275 30.9775C10.4563 30.8344 9.875 30.0031 10.0588 29.2438L12.3956 19.0044L12.7644 17.1525Z" stroke="black" stroke-width="2" stroke-linejoin="round"/>
</g>
<defs>
<clipPath id="clip0_525_5249">
<rect width="32" height="32" fill="white"/>
</clipPath>
</defs>
</svg>
