<svg width="16" height="16" viewBox="0 0 16 16" fill="none" xmlns="http://www.w3.org/2000/svg">
<g clip-path="url(#clip0_2220_1832)">
<path d="M15 3.99998C15 3.46955 14.7893 2.96084 14.4142 2.58577C14.0391 2.2107 13.5304 1.99998 13 1.99998H12.5V1.51405C12.5 1.24498 12.2931 1.01405 12.0241 1.00061C11.9565 0.997353 11.8889 1.00785 11.8255 1.03148C11.762 1.05511 11.7041 1.09136 11.6551 1.13805C11.6061 1.18475 11.5671 1.2409 11.5404 1.30311C11.5138 1.36532 11.5 1.4323 11.5 1.49998V1.99998H4.5V1.51405C4.5 1.24498 4.29313 1.01405 4.02406 1.00061C3.95646 0.997353 3.8889 1.00785 3.82547 1.03148C3.76204 1.05511 3.70407 1.09136 3.65508 1.13805C3.60608 1.18475 3.56707 1.2409 3.54041 1.30311C3.51375 1.36532 3.50001 1.4323 3.5 1.49998V1.99998H3C2.46957 1.99998 1.96086 2.2107 1.58579 2.58577C1.21071 2.96084 1 3.46955 1 3.99998V4.37498C1 4.40814 1.01317 4.43993 1.03661 4.46337C1.06005 4.48682 1.09185 4.49998 1.125 4.49998H14.875C14.9082 4.49998 14.9399 4.48682 14.9634 4.46337C14.9868 4.43993 15 4.40814 15 4.37498V3.99998ZM1 13C1 13.5304 1.21071 14.0391 1.58579 14.4142C1.96086 14.7893 2.46957 15 3 15H13C13.5304 15 14.0391 14.7893 14.4142 14.4142C14.7893 14.0391 15 13.5304 15 13V5.59373C15 5.56887 14.9901 5.54502 14.9725 5.52744C14.955 5.50986 14.9311 5.49998 14.9062 5.49998H1.09375C1.06889 5.49998 1.04504 5.50986 1.02746 5.52744C1.00988 5.54502 1 5.56887 1 5.59373V13ZM11.75 6.49998C11.8983 6.49998 12.0433 6.54397 12.1667 6.62638C12.29 6.70879 12.3861 6.82593 12.4429 6.96297C12.4997 7.10002 12.5145 7.25082 12.4856 7.3963C12.4566 7.54179 12.3852 7.67543 12.2803 7.78031C12.1754 7.8852 12.0418 7.95663 11.8963 7.98557C11.7508 8.01451 11.6 7.99966 11.463 7.94289C11.3259 7.88613 11.2088 7.79 11.1264 7.66666C11.044 7.54333 11 7.39832 11 7.24998C11 7.05107 11.079 6.86031 11.2197 6.71965C11.3603 6.579 11.5511 6.49998 11.75 6.49998ZM11.75 8.99998C11.8983 8.99998 12.0433 9.04397 12.1667 9.12638C12.29 9.20879 12.3861 9.32593 12.4429 9.46297C12.4997 9.60002 12.5145 9.75082 12.4856 9.8963C12.4566 10.0418 12.3852 10.1754 12.2803 10.2803C12.1754 10.3852 12.0418 10.4566 11.8963 10.4856C11.7508 10.5145 11.6 10.4997 11.463 10.4429C11.3259 10.3861 11.2088 10.29 11.1264 10.1667C11.044 10.0433 11 9.89832 11 9.74998C11 9.55107 11.079 9.36031 11.2197 9.21966C11.3603 9.079 11.5511 8.99998 11.75 8.99998ZM9.25 6.49998C9.39834 6.49998 9.54334 6.54397 9.66668 6.62638C9.79001 6.70879 9.88614 6.82593 9.94291 6.96297C9.99967 7.10002 10.0145 7.25082 9.98559 7.3963C9.95665 7.54179 9.88522 7.67543 9.78033 7.78031C9.67544 7.8852 9.5418 7.95663 9.39632 7.98557C9.25083 8.01451 9.10003 7.99966 8.96299 7.94289C8.82594 7.88613 8.70881 7.79 8.6264 7.66666C8.54399 7.54333 8.5 7.39832 8.5 7.24998C8.5 7.05107 8.57902 6.86031 8.71967 6.71965C8.86032 6.579 9.05109 6.49998 9.25 6.49998ZM9.25 8.99998C9.39834 8.99998 9.54334 9.04397 9.66668 9.12638C9.79001 9.20879 9.88614 9.32593 9.94291 9.46297C9.99967 9.60002 10.0145 9.75082 9.98559 9.8963C9.95665 10.0418 9.88522 10.1754 9.78033 10.2803C9.67544 10.3852 9.5418 10.4566 9.39632 10.4856C9.25083 10.5145 9.10003 10.4997 8.96299 10.4429C8.82594 10.3861 8.70881 10.29 8.6264 10.1667C8.54399 10.0433 8.5 9.89832 8.5 9.74998C8.5 9.55107 8.57902 9.36031 8.71967 9.21966C8.86032 9.079 9.05109 8.99998 9.25 8.99998ZM9.25 11.5C9.39834 11.5 9.54334 11.544 9.66668 11.6264C9.79001 11.7088 9.88614 11.8259 9.94291 11.963C9.99967 12.1 10.0145 12.2508 9.98559 12.3963C9.95665 12.5418 9.88522 12.6754 9.78033 12.7803C9.67544 12.8852 9.5418 12.9566 9.39632 12.9856C9.25083 13.0145 9.10003 12.9997 8.96299 12.9429C8.82594 12.8861 8.70881 12.79 8.6264 12.6667C8.54399 12.5433 8.5 12.3983 8.5 12.25C8.5 12.0511 8.57902 11.8603 8.71967 11.7197C8.86032 11.579 9.05109 11.5 9.25 11.5ZM6.75 8.99998C6.89834 8.99998 7.04334 9.04397 7.16668 9.12638C7.29001 9.20879 7.38614 9.32593 7.44291 9.46297C7.49968 9.60002 7.51453 9.75082 7.48559 9.8963C7.45665 10.0418 7.38522 10.1754 7.28033 10.2803C7.17544 10.3852 7.0418 10.4566 6.89632 10.4856C6.75083 10.5145 6.60003 10.4997 6.46299 10.4429C6.32594 10.3861 6.20881 10.29 6.1264 10.1667C6.04399 10.0433 6 9.89832 6 9.74998C6 9.55107 6.07902 9.36031 6.21967 9.21966C6.36032 9.079 6.55109 8.99998 6.75 8.99998ZM6.75 11.5C6.89834 11.5 7.04334 11.544 7.16668 11.6264C7.29001 11.7088 7.38614 11.8259 7.44291 11.963C7.49968 12.1 7.51453 12.2508 7.48559 12.3963C7.45665 12.5418 7.38522 12.6754 7.28033 12.7803C7.17544 12.8852 7.0418 12.9566 6.89632 12.9856C6.75083 13.0145 6.60003 12.9997 6.46299 12.9429C6.32594 12.8861 6.20881 12.79 6.1264 12.6667C6.04399 12.5433 6 12.3983 6 12.25C6 12.0511 6.07902 11.8603 6.21967 11.7197C6.36032 11.579 6.55109 11.5 6.75 11.5ZM4.25 8.99998C4.39834 8.99998 4.54334 9.04397 4.66668 9.12638C4.79001 9.20879 4.88614 9.32593 4.94291 9.46297C4.99968 9.60002 5.01453 9.75082 4.98559 9.8963C4.95665 10.0418 4.88522 10.1754 4.78033 10.2803C4.67544 10.3852 4.5418 10.4566 4.39632 10.4856C4.25083 10.5145 4.10003 10.4997 3.96299 10.4429C3.82594 10.3861 3.70881 10.29 3.6264 10.1667C3.54399 10.0433 3.5 9.89832 3.5 9.74998C3.5 9.55107 3.57902 9.36031 3.71967 9.21966C3.86032 9.079 4.05109 8.99998 4.25 8.99998ZM4.25 11.5C4.39834 11.5 4.54334 11.544 4.66668 11.6264C4.79001 11.7088 4.88614 11.8259 4.94291 11.963C4.99968 12.1 5.01453 12.2508 4.98559 12.3963C4.95665 12.5418 4.88522 12.6754 4.78033 12.7803C4.67544 12.8852 4.5418 12.9566 4.39632 12.9856C4.25083 13.0145 4.10003 12.9997 3.96299 12.9429C3.82594 12.8861 3.70881 12.79 3.6264 12.6667C3.54399 12.5433 3.5 12.3983 3.5 12.25C3.5 12.0511 3.57902 11.8603 3.71967 11.7197C3.86032 11.579 4.05109 11.5 4.25 11.5Z" fill="#E26385" stroke="#E26385" stroke-width="0.0625"/>
</g>
<defs>
<clipPath id="clip0_2220_1832">
<rect width="16" height="16" fill="white"/>
</clipPath>
</defs>
</svg>
