<svg width="32" height="32" viewBox="0 0 32 32" fill="none" xmlns="http://www.w3.org/2000/svg">
<path d="M28 16C28 9.375 22.625 4 16 4C9.375 4 4 9.375 4 16C4 22.625 9.375 28 16 28C22.625 28 28 22.625 28 16Z" stroke="#E26385" stroke-width="2" stroke-miterlimit="10"/>
<path d="M21.9169 9.43313L14.5919 12.3631C14.0888 12.5643 13.6319 12.8656 13.2487 13.2487C12.8656 13.6318 12.5643 14.0888 12.3631 14.5919L9.43314 21.9169C9.39677 22.0077 9.38787 22.1073 9.40754 22.2032C9.42721 22.299 9.47458 22.387 9.54379 22.4562C9.61299 22.5254 9.70099 22.5728 9.79686 22.5925C9.89274 22.6122 9.99228 22.6033 10.0831 22.5669L17.4081 19.6369C17.9112 19.4357 18.3682 19.1344 18.7513 18.7513C19.1344 18.3682 19.4357 17.9112 19.6369 17.4081L22.5669 10.0831C22.6033 9.99227 22.6122 9.89273 22.5925 9.79685C22.5728 9.70097 22.5255 9.61298 22.4563 9.54377C22.387 9.47456 22.2991 9.42719 22.2032 9.40752C22.1073 9.38786 22.0078 9.39676 21.9169 9.43313ZM16 17.5C15.7033 17.5 15.4133 17.412 15.1667 17.2472C14.92 17.0824 14.7277 16.8481 14.6142 16.574C14.5007 16.2999 14.471 15.9983 14.5288 15.7074C14.5867 15.4164 14.7296 15.1491 14.9394 14.9393C15.1491 14.7296 15.4164 14.5867 15.7074 14.5288C15.9984 14.4709 16.3 14.5007 16.574 14.6142C16.8481 14.7277 17.0824 14.92 17.2472 15.1666C17.412 15.4133 17.5 15.7033 17.5 16C17.5 16.3978 17.342 16.7794 17.0607 17.0607C16.7794 17.342 16.3978 17.5 16 17.5Z" fill="#E26385" stroke="#E26385" stroke-width="0.0625"/>
</svg>
