<svg width="20" height="20" viewBox="0 0 20 20" fill="none" xmlns="http://www.w3.org/2000/svg">
<path d="M15 8.75V15.9375C15 16.1427 14.9596 16.3459 14.8811 16.5354C14.8025 16.725 14.6874 16.8973 14.5424 17.0424C14.3973 17.1874 14.225 17.3025 14.0354 17.3811C13.8459 17.4596 13.6427 17.5 13.4375 17.5H4.0625C3.6481 17.5 3.25067 17.3354 2.95765 17.0424C2.66462 16.7493 2.5 16.3519 2.5 15.9375V6.5625C2.5 6.1481 2.66462 5.75067 2.95765 5.45765C3.25067 5.16462 3.6481 5 4.0625 5H10.6047M13.125 2.5H17.5V6.875M8.75 11.25L17.1875 2.8125" stroke="#E26385" stroke-width="2" stroke-linecap="round" stroke-linejoin="round"/>
</svg>
