<svg width="21" height="20" viewBox="0 0 21 20" fill="none" xmlns="http://www.w3.org/2000/svg">
<path d="M13.625 17.5H15.8125C16.3927 17.5 16.9491 17.2695 17.3593 16.8593C17.7695 16.4491 18 15.8927 18 15.3125V13.125M18 6.875V4.6875C18 4.10734 17.7695 3.55094 17.3593 3.1407C16.9491 2.73047 16.3927 2.5 15.8125 2.5H13.625M7.375 17.5H5.1875C4.60734 17.5 4.05094 17.2695 3.6407 16.8593C3.23047 16.4491 3 15.8927 3 15.3125V13.125M3 6.875V4.6875C3 4.10734 3.23047 3.55094 3.6407 3.1407C4.05094 2.73047 4.60734 2.5 5.1875 2.5H7.375" stroke="white" stroke-width="2" stroke-linecap="round" stroke-linejoin="round"/>
</svg>
